<?xml version="1.0" encoding="utf-8"?>
<!-- Generator: Adobe Illustrator 19.2.1, SVG Export Plug-In . SVG Version: 6.00 Build 0)  -->
<svg version="1.1" id="Layer_1" xmlns="http://www.w3.org/2000/svg" xmlns:xlink="http://www.w3.org/1999/xlink" x="0px" y="0px"
	 viewBox="0 0 1032.1 481.1" style="enable-background:new 0 0 1032.1 481.1;" xml:space="preserve">
<style type="text/css">
	.st0{fill:#F2F2F2;}
</style>
<g id="_x35_0G5rS.tif">
	<g>
		<path class="st0" d="M879,0.1c49.5,0,99.1,0,148.6-0.1c3.3,0,4.5,0.3,4.5,4.2c-0.3,18.3-0.1,36.6-0.1,54.9c-3-0.5-5.3,1.5-7.8,2.6
			c-18.8,8.9-37.6,17.9-56.4,26.9c-43,20.5-86,40.9-129,61.3c-41.3,19.7-82.7,39.4-124,59c-48.3,22.9-96.6,45.8-144.8,68.8
			c-43,20.4-86,40.9-129,61.4c-39.5,18.8-79.1,37.7-118.6,56.5c-33.4,15.9-66.8,31.7-100.2,47.6c-26.4,12.6-52.8,25.3-79.3,38
			c-17.3,0-34.7,0-52,0c0.4-0.3,0.7-0.7,1.1-1c81.4-49.7,162.8-99.4,244.3-149c83.4-50.9,166.9-101.7,250.3-152.5
			c80.5-49,160.9-98,241.3-147.1C845.1,21.1,862,10.6,879,0.1z"/>
		<path class="st0" d="M242,481.1c21-9.2,42-18.5,63.1-27.7c41.3-17.9,82.5-35.8,123.8-53.4c41.2-17.5,82.5-34.8,123.8-52.1
			c39.5-16.5,79.1-32.7,118.5-49.3c54.5-22.9,108.9-45.9,163.3-69.1c55.4-23.6,110.8-47.4,166.2-71.2c10.4-4.5,20.8-8.9,31.2-13.4
			c0,31.7,0,63.3,0,95c-236.5,80-472.9,160-709.4,240c-0.6,0.2-1.1,0.6-1.6,1C294.7,481.1,268.3,481.1,242,481.1z"/>
		<path class="st0" d="M737,0.1c-17.3,11.8-34.6,23.6-52,35.3c-75.4,50.7-150.9,101.4-226.4,152.1
			c-90.3,60.6-180.5,121.2-270.8,181.8c-53.9,36.2-107.7,72.5-161.6,108.8c-1.2,0.8-2.7,1.3-3.3,2.9c-7.7,0-15.3,0-23,0
			c26.3-22,52.6-44.1,78.9-66.1c86.1-72,172.3-143.9,258.4-215.8C415.6,133.8,494,68.3,572.3,2.9c1-0.8,1.8-1.9,2.7-2.8
			C629,0.1,683,0.1,737,0.1z"/>
	</g>
</g>
</svg>
