<?xml version="1.0" encoding="utf-8"?>
<!-- Generator: Adobe Illustrator 19.2.1, SVG Export Plug-In . SVG Version: 6.00 Build 0)  -->
<svg version="1.1" id="Layer_1" xmlns="http://www.w3.org/2000/svg" xmlns:xlink="http://www.w3.org/1999/xlink" x="0px" y="0px"
	 viewBox="0 0 358.2 162.4" style="enable-background:new 0 0 358.2 162.4;" xml:space="preserve">
<style type="text/css">
	.st0{fill:#FFFFFF;}
</style>
<g id="_x30_4Fac2.tif">
	<g>
		<path class="st0" d="M377.5,598.1c1.4,1.7,2.9,3.4,4.3,5.2c4.9,6.5,9.1,13.3,10.5,21.5c1.2,6.9,0.2,13.2-4.4,18.7
			c-2.9,3.5-7.1,5-11.1,6.7c-8.6,3.4-17.6,4.8-26.7,5.5c-8,0.6-16,1.1-23.9,1.7c-1.2,0.1-2.3,0.4-3.5,0.8c-1.4,0.5-1.5,1.4-0.3,2.2
			c1.1,0.8,2.3,1.5,3.6,1.9c6.4,2.3,12.8,4.5,19.3,6.7c14.4,5,28.8,9.9,43.2,14.8c9,3.1,18,6.3,26.9,9.5c0.5,0.2,0.9,0.4,1.3,0.9
			c-0.7-0.1-1.3-0.2-2-0.4c-17-5.1-34.1-10.2-51.1-15.3c-15.9-4.8-31.8-9.6-47.7-14.4c-19.7-5.9-39.5-11.9-59.2-17.8
			c-18.1-5.4-36.2-10.8-54.2-16.2c-15.8-4.8-31.7-9.6-47.5-14.3c-21.3-6.4-42.6-12.7-63.8-19.1c-4.4-1.3-8.8-2.7-13.2-4
			c-1-0.3-1.4-0.8-0.9-1.9c4.2,0.7,8.3,1.4,12.5,2.1c12.8,2.2,25.7,4.5,38.5,6.7c18.3,3.2,36.6,6.4,54.9,9.6
			c14.5,2.6,29,5.1,43.5,7.8c5.3,1,9.7,3.8,13.8,7c3.2,2.5,6.4,5.1,9.4,7.9c5,4.6,11.1,7,17.5,9c16.7,5,33.6,8.6,50.9,10.3
			c13.9,1.4,27.8,1.5,41.6,0.2c6.4-0.6,12.7-2,18.8-4.4c11.6-4.4,14-14.9,11.8-24.6c-2-8.6-6.7-15.8-12.1-22.6
			c-0.3-0.4-0.6-0.7-0.9-1c-0.1-0.1-0.1-0.2-0.1-0.3C377.3,598.3,377.4,598.2,377.5,598.1z"/>
		<path class="st0" d="M78.9,582.6c0.9-1.6,1.7-2.8,2.5-4c0.3-0.4,0.9-0.7,1.4-0.8c13.1-2.4,26.2-4.8,39.3-7.1
			c13.6-2.4,27.2-4.9,40.8-7.2c11.6-2,23.2-4,34.9-5.7c7.4-1.1,14.7-1.7,22.2-0.2c6.8,1.3,12.7,4.5,18.1,8.6
			c7.6,5.8,15.3,11.6,22.9,17.4c4.4,3.4,8.6,6.8,13,10.2c11.7,9,25.1,14.2,39.2,17.7c9.7,2.4,19.5,4.2,29.5,5
			c9.8,0.8,19.6,0.9,29.3-1.2c2-0.4,3.9-1.1,6-1.3c-2.1,0.9-4.2,1.9-6.3,2.6c-8,2.6-16.3,3.2-24.7,3.1c-14.9-0.1-29.6-2.7-44.1-6
			c-16-3.6-31-9.6-45.6-16.9c-8.3-4.2-16.5-8.5-25-12.4c-10.5-4.8-21.5-8-33.1-8.4c-11.2-0.4-22.3-0.1-33.5,0.2
			c-7.2,0.2-14.4,0.7-21.6,1.2c-12.7,0.9-25.3,1.9-38,2.9C97.2,581,88.3,581.8,78.9,582.6z"/>
		<path class="st0" d="M281.1,539c6.8,0.2,12.8,0.3,18.3,3c8.5,4.1,16.7,9,24.5,14.2c11,7.4,21.6,15.2,31.3,24.2
			c0.7,0.6,1.3,1.2,1.9,1.9c1.6,1.6,1.3,3.1-0.8,3.7c-3.5,1-7.1,1.8-10.8,2.4c-10.7,1.7-20.8-1-30.9-4.3
			c-14.3-4.7-27.7-11.6-40.3-19.9c-6.7-4.4-13-9.3-19.4-14.1c-3.2-2.4-3.1-3.7,0.6-5.6c5.6-2.9,11.6-4.2,17.7-5
			C276.3,539.2,279.1,539.2,281.1,539z M316.9,579.8c-9-4.7-18-9.3-26.8-14.1c-8.9-4.9-17.2-10.6-25.9-16.9c3.3-1,6.1-2,9-2.7
			c2.9-0.7,5.9-1.4,8.8-1.8c2.9-0.4,5.8-0.4,8.8-0.6c-7.2-1.8-24.3,1.4-29.7,4.9C278,562,296.3,572.8,316.9,579.8z"/>
		<path class="st0" d="M89.2,572.9c9.6-2.9,19.2-5.8,28.8-8.6c16.6-4.8,33.2-9.7,49.8-14.2c20.3-5.5,40.7-10.6,61-15.7
			c10.1-2.5,20.4-2.9,30.8-2.4c8.8,0.5,17.5,1.5,26.1,3.5c0.5,0.1,1.1,0.3,1.6,0.6c-2.2-0.1-4.3-0.3-6.5-0.4
			c-9.5-0.3-18.8,0.8-27.5,4.9c-1.7,0.8-3.4,1.9-5.1,2.7c-0.9,0.4-2,0.7-2.9,0.6c-13.2-2-26.2-0.9-39.3,1.2
			c-15.1,2.5-29.9,6.4-44.7,10.1c-18.2,4.6-36.5,9-54.8,13.6c-5.5,1.4-11.1,2.9-16.6,4.3c-0.2,0.1-0.4,0-0.7,0.1
			C89.2,573.1,89.2,573,89.2,572.9z"/>
		<path class="st0" d="M344.3,612.4c-10.7-0.1-21.1-2.1-31.3-5.1c-1.4-0.4-3-0.3-3.5-2.1c-0.8-2.5,0.2-4.9,2.6-6.1
			c2.1-1,5-0.2,6.4,2c0.3,0.4,0.5,0.9,0.8,1.4c0-2.7-2.6-4.9-5.6-4.9c-4,0-6.3,2.8-6.4,8.2c-3.6-1.4-7.1-2.8-10.6-4.3
			c-0.6-0.3-1-1.3-1.1-2.1c-0.4-2.8,1.2-5.3,3.9-6.2c2.6-0.9,5.5,0.2,6.9,2.6c0.3,0.5,0.6,1.1,0.9,1.7c0.1-2.7-2.7-5.5-5.8-5.7
			c-4.5-0.3-7.3,2.6-8.1,8.6c-6.2-3.9-12.1-7.6-18.1-11.3c0.1-0.2,0.1-0.4,0.2-0.6c1.6-0.2,3.3-0.4,4.9-0.5
			c6.2-0.4,12.5-0.7,18.6,0.9c4.1,1.1,8,2.8,11.8,4.8c10.7,5.6,21.2,11.5,31.8,17.3C343,611.5,343.7,612,344.3,612.4z"/>
		<path class="st0" d="M362.8,657.4c3.6-1.3,6.7-0.7,10,0.3c16.8,5.2,33.6,10.2,50.4,15.3c4,1.2,7.9,2.5,11.7,4.1
			C411,670.6,387,664,362.8,657.4z"/>
	</g>
</g>
</svg>
